<?xml version="1.0" encoding="UTF-8"?>
<!DOCTYPE svg PUBLIC "-//W3C//DTD SVG 1.1//EN" "http://www.w3.org/Graphics/SVG/1.1/DTD/svg11.dtd">
<!-- Creator: CorelDRAW -->
<svg xmlns="http://www.w3.org/2000/svg" xml:space="preserve" width="100px" height="38px" style="shape-rendering:geometricPrecision; text-rendering:geometricPrecision; image-rendering:optimizeQuality; fill-rule:evenodd; clip-rule:evenodd"
viewBox="0 0 27.6247 10.5705"
 xmlns:xlink="http://www.w3.org/1999/xlink">
 <defs>
  <style type="text/css">
   <![CDATA[
    .fil0 {fill:#FED136;fill-rule:nonzero}
   ]]>
  </style>
 </defs>
 <g id="Warstwa_x0020_1">
  <metadata id="CorelCorpID_0Corel-Layer"/>
  <path class="fil0" d="M1.67148 4.01358c-0.203507,-0.108435 -0.375338,-0.240221 -0.51212,-0.397025 -0.138446,-0.156804 -0.243551,-0.328592 -0.313607,-0.513784 -0.0700557,-0.18515 -0.105105,-0.375338 -0.105105,-0.570521 0,-0.243551 0.0550712,-0.47707 0.166836,-0.70393 0.1101,-0.226902 0.278601,-0.430409 0.503795,-0.607235l-0.340332 -0.610522c-0.246881,0.17849 -0.448724,0.371965 -0.607192,0.58384 -0.158468,0.210167 -0.275271,0.430367 -0.350321,0.660598 -0.0767155,0.230189 -0.11343,0.462086 -0.11343,0.69727 0,0.278601 0.0516986,0.548834 0.153474,0.809077 0.101732,0.260243 0.248546,0.497092 0.443729,0.713962 0.195183,0.21687 0.433696,0.400355 0.713962,0.548834l-0.310277 0.540466c-0.146771,0.253584 -0.256871,0.507125 -0.331964,0.760708 -0.0733856,0.253541 -0.10677,0.493762 -0.100067,0.720622 0.00499483,0.228567 0.0566935,0.430409 0.150101,0.607235 0.0951152,0.176826 0.236892,0.315272 0.427079,0.418712 0.190145,0.101732 0.432031,0.153431 0.725616,0.155139 0.220199,-0.00170763 0.423749,-0.0317193 0.610565,-0.0901204 0.186815,-0.0583584 0.360311,-0.138446 0.520487,-0.240179l-0.270276 0.470411c-0.472075,0.143441 -0.87909,0.303617 -1.21942,0.480443 -0.340289,0.176826 -0.600532,0.371965 -0.784018,0.58717 -0.183485,0.21687 -0.276936,0.453761 -0.278601,0.713962 0.00166494,0.166836 0.041709,0.311942 0.116802,0.432074 0.0767155,0.120089 0.17849,0.213497 0.30857,0.278558 0.128457,0.0667258 0.273606,0.10344 0.433739,0.1101 0.161798,0.00670246 0.326969,-0.020022 0.497135,-0.0800454 0.171788,-0.061731 0.336959,-0.158468 0.495427,-0.29192 0.160133,-0.131787 0.303617,-0.305282 0.430367,-0.518822l0.80071 -1.37123c0.360354,-0.111765 0.718999,-0.271898 1.07765,-0.4804 0.360311,-0.208545 0.722329,-0.470453 1.08763,-0.78739 0.365348,-0.316937 0.737356,-0.695605 1.11769,-1.13434 -0.0233519,-0.0467038 -0.0584011,-0.0951152 -0.101775,-0.141819 -0.041709,-0.0483687 -0.0900777,-0.0917426 -0.140111,-0.130122 -0.0517413,-0.0383364 -0.10011,-0.0683908 -0.148479,-0.0884128l-0.0700557 0.080088c-0.28526,0.330299 -0.560488,0.622219 -0.825727,0.875803 -0.263573,0.255206 -0.527147,0.47374 -0.78739,0.657226 -0.260243,0.181863 -0.527147,0.331964 -0.799045,0.448766l1.3212 -2.26206 -1.04093 0 -0.1101 0.180198c-0.183528,0.325262 -0.377003,0.613852 -0.580553,0.862441 -0.205172,0.248546 -0.423707,0.443729 -0.657226,0.58384 -0.233562,0.141776 -0.483773,0.21354 -0.754006,0.215205 -0.238557,-0.00166494 -0.408722,-0.0767582 -0.510455,-0.223572 -0.10344,-0.146771 -0.131787,-0.351943 -0.0867478,-0.617182 0.0450389,-0.265238 0.171831,-0.575515 0.377003,-0.930831l0.290255 -0.510455c0.0950725,0.0149845 0.190188,0.0266818 0.28859,0.0366714 0.0967375,0.00836741 0.196848,0.0133622 0.301952,0.0133622 0.412009,-0.00166494 0.799045,-0.0584011 1.15936,-0.170166 0.360311,-0.111765 0.69061,-0.261908 0.992562,-0.455383 0.300245,-0.191853 0.565483,-0.412052 0.79738,-0.658933 0.231854,-0.246881 0.425372,-0.507125 0.58051,-0.782395 0.153474,-0.273563 0.265238,-0.547126 0.333629,-0.822397 0.0683908,-0.273563 0.0900777,-0.533806 0.0633959,-0.780688 -0.0266818,-0.246881 -0.105105,-0.467081 -0.233562,-0.658933 -0.130079,-0.193475 -0.315272,-0.345284 -0.557158,-0.455383 -0.240221,-0.111765 -0.542131,-0.168501 -0.90415,-0.170166 -0.19181,0 -0.390322,0.0450389 -0.595537,0.133452 -0.205172,0.0900777 -0.403685,0.225194 -0.59716,0.40535 -0.193518,0.181863 -0.370343,0.408722 -0.528812,0.682285l-1.62148 2.79249zm0.90082 0.250254l1.50135 -2.60235c0.156804,-0.263573 0.316937,-0.457091 0.478778,-0.578845 0.161798,-0.123462 0.315272,-0.183485 0.462043,-0.18182 0.20688,0.00166494 0.370343,0.0500337 0.490475,0.143441 0.120089,0.0951152 0.200177,0.221864 0.240179,0.381998 0.040044,0.160176 0.041709,0.338667 0.00670246,0.538844 -0.0350492,0.198512 -0.10677,0.40535 -0.21354,0.617224 -0.105105,0.211832 -0.245216,0.418712 -0.417047,0.617224 -0.173496,0.200177 -0.375338,0.378668 -0.608857,0.538801 -0.233562,0.160133 -0.49547,0.286925 -0.78406,0.380333 -0.290255,0.0950725 -0.605527,0.143484 -0.945816,0.145149l-0.21021 0zm-1.28115 5.29473c-0.00166494,-0.0900777 0.0283894,-0.183528 0.0917426,-0.28193 0.0633959,-0.0984024 0.171831,-0.198512 0.323639,-0.300287 0.151809,-0.101732 0.360311,-0.205172 0.625549,-0.308612l-0.470411 0.840754c-0.0567361,0.0967802 -0.116759,0.168501 -0.18182,0.211875 -0.0650609,0.0450389 -0.126792,0.0667258 -0.186858,0.0650609 -0.0583584,-0.00166494 -0.106727,-0.021687 -0.143441,-0.061731 -0.0383791,-0.040044 -0.0567361,-0.0950725 -0.0584011,-0.165128zm7.92709 -2.64239c0.156804,0 0.330299,-0.0233519 0.520487,-0.0700557 0.190145,-0.0450389 0.381998,-0.111765 0.578845,-0.198512 0.196848,-0.0884128 0.385328,-0.193475 0.562153,-0.318602 0.17849,-0.125127 0.335294,-0.265238 0.470411,-0.423707 -0.0250168,-0.0467038 -0.0583584,-0.0951152 -0.101732,-0.141819 -0.0433739,-0.0483687 -0.0900777,-0.0917426 -0.140154,-0.130122 -0.0516986,-0.0383364 -0.100067,-0.0683908 -0.148436,-0.0884128l-0.0700557 0.080088c-0.158511,0.170166 -0.325304,0.311942 -0.500465,0.423707 -0.176826,0.11343 -0.355316,0.198512 -0.537136,0.256914 -0.18182,0.0566935 -0.358646,0.0867478 -0.533806,0.0900777l0.980865 -1.69154c0.155139,-0.275228 0.241886,-0.538801 0.258579,-0.792342 0.0166494,-0.251919 -0.0233519,-0.478778 -0.120132,-0.67729 -0.0967375,-0.200177 -0.236892,-0.358646 -0.422042,-0.47374 -0.183485,-0.116802 -0.400355,-0.176826 -0.647236,-0.17849 -0.265238,-0.00332989 -0.515449,0.0383364 -0.747346,0.121754 -0.230189,0.0834179 -0.452053,0.225194 -0.660598,0.423707 -0.210167,0.198512 -0.415339,0.470453 -0.613852,0.815737l-0.510455 0.890787 -0.450431 0.770698c-0.18515,0.321974 -0.29858,0.613895 -0.341954,0.874138 -0.0433739,0.261866 -0.0300544,0.488768 0.040044,0.680578 0.0683908,0.191853 0.180155,0.346991 0.335294,0.463751 0.153474,0.118467 0.335294,0.193518 0.543796,0.230232 0.208545,0.0350065 0.432074,0.0250168 0.667258,-0.0283894 0.235227,-0.0550285 0.470453,-0.156804 0.703972,-0.30524 0.233562,-0.150144 0.452096,-0.351986 0.653939,-0.603905l0.230189 0zm-1.141 -0.680578c0,0.0650609 0.00998966,0.126749 0.0283467,0.186815 0.0166921,0.0584011 0.041709,0.11343 0.0717206,0.163463l-0.00998966 0.020022c-0.0834179,0.140154 -0.180155,0.251919 -0.291963,0.337002 -0.111765,0.0850402 -0.223529,0.143441 -0.338624,0.173453 -0.115095,0.0300544 -0.220199,0.0333842 -0.316937,0.0100324 -0.0950725,-0.0233519 -0.170166,-0.0733856 -0.223529,-0.150144 -0.0534063,-0.0767155 -0.0734283,-0.17849 -0.060066,-0.306947 0.0116973,-0.128457 0.0683908,-0.283595 0.170166,-0.463751l0.790677 -1.37123 0.500465 -0.850743c0.148479,-0.246881 0.300287,-0.428702 0.455426,-0.545504 0.155139,-0.118424 0.29858,-0.180155 0.428702,-0.18515 0.131787,-0.00665977 0.235227,0.0333416 0.311942,0.120089 0.0767582,0.0867478 0.111765,0.21021 0.10344,0.372008 -0.00836741,0.161798 -0.0750932,0.350321 -0.198512,0.568856l-0.760708 1.30117 -0.0500337 0c-0.115095,0.00166494 -0.218534,0.0300117 -0.310277,0.0850402 -0.0900777,0.0550712 -0.163463,0.130122 -0.21687,0.223572 -0.0550285,0.0934076 -0.0817103,0.196805 -0.0833752,0.311942zm5.38481 -0.610565c-0.188523,0.218534 -0.373673,0.423707 -0.555493,0.61223 -0.18182,0.18848 -0.356981,0.353651 -0.523817,0.495427 -0.168458,0.141819 -0.325262,0.251876 -0.470411,0.331964 -0.145149,0.080088 -0.276893,0.120132 -0.39203,0.121797 -0.0783804,0 -0.140111,-0.0183571 -0.186815,-0.0567361 -0.0467038,-0.0383791 -0.0667258,-0.100067 -0.060066,-0.183485 0.00665977,-0.0834179 0.0483687,-0.193518 0.126792,-0.330299l3.50313 -6.09544 -1.04093 0 -3.36301 5.82521c-0.1101,0.19514 -0.173496,0.380333 -0.193518,0.557158 -0.0183144,0.176826 0.00337258,0.333629 0.0684334,0.472075 0.0650182,0.138446 0.166793,0.248546 0.30857,0.328634 0.140154,0.080088 0.31698,0.121754 0.527147,0.123462 0.215205,-0.00170763 0.437069,-0.0550712 0.665593,-0.160176 0.228567,-0.103397 0.458756,-0.245216 0.690653,-0.425372 0.231854,-0.180155 0.462043,-0.383663 0.69061,-0.613895 0.226859,-0.228524 0.450389,-0.470411 0.665593,-0.722287 -0.0250168,-0.0467038 -0.0584011,-0.0951152 -0.101775,-0.141819 -0.0433739,-0.0483687 -0.0900777,-0.0917426 -0.140111,-0.130122 -0.0516986,-0.0383364 -0.101775,-0.0683908 -0.148479,-0.0884128l-0.0700557 0.080088zm4.9144 0c-0.188523,0.218534 -0.373673,0.422042 -0.555493,0.610565 -0.181863,0.18848 -0.356981,0.355316 -0.523817,0.497092 -0.168501,0.141819 -0.325304,0.251876 -0.470411,0.331964 -0.145149,0.080088 -0.276936,0.120132 -0.39203,0.121797 -0.0783804,0 -0.140111,-0.0183571 -0.186815,-0.0567361 -0.0467038,-0.0383791 -0.0667258,-0.100067 -0.060066,-0.183485 0.00665977,-0.0834179 0.0483687,-0.193518 0.126792,-0.330299l3.52315 -6.09544 -1.04093 0 -1.53136 2.64235c-0.060066,-0.0984451 -0.136824,-0.188523 -0.230232,-0.268568 -0.0934076,-0.081753 -0.201842,-0.146814 -0.323597,-0.196848 -0.120132,-0.0483687 -0.253584,-0.0733856 -0.397025,-0.0750932 -0.141819,0 -0.291963,0.0267245 -0.452096,0.080088 -0.161798,0.0534063 -0.321932,0.131787 -0.483773,0.235227 -0.161798,0.103397 -0.315272,0.228524 -0.460378,0.377003 -0.145149,0.148436 -0.273606,0.318602 -0.38537,0.50879l-1.46131 2.52226c-0.1101,0.19514 -0.173496,0.380333 -0.193518,0.557158 -0.0183144,0.176826 0.00337258,0.333629 0.0684334,0.472075 0.0650182,0.138446 0.166793,0.248546 0.30857,0.328634 0.140154,0.080088 0.31698,0.121754 0.527147,0.123462 0.211875,-0.00337258 0.442064,-0.0650609 0.69061,-0.186858 0.248589,-0.121754 0.4988,-0.28526 0.750676,-0.493762 0.0166921,0.135117 0.0633959,0.251876 0.138489,0.353651 0.0750505,0.101732 0.176826,0.18182 0.303575,0.240221 0.128457,0.0566935 0.28193,0.0850402 0.458756,0.0867478 0.215205,-0.00170763 0.437069,-0.0550712 0.665593,-0.160176 0.228524,-0.103397 0.458756,-0.245216 0.69061,-0.425372 0.231897,-0.180155 0.462086,-0.383663 0.69061,-0.613895 0.228567,-0.228524 0.450431,-0.470411 0.665636,-0.722287 -0.0250595,-0.0467038 -0.0584011,-0.0951152 -0.101775,-0.141819 -0.0433739,-0.0483687 -0.0900777,-0.0917426 -0.140111,-0.130122 -0.0517413,-0.0383364 -0.10011,-0.0683908 -0.148479,-0.0884128l-0.0700557 0.080088zm-2.95267 -1.5414c0.0951152,-0.161798 0.200177,-0.290255 0.31698,-0.386993 0.115095,-0.0950725 0.230189,-0.161798 0.346949,-0.196848 0.115137,-0.0350065 0.221864,-0.0433739 0.318645,-0.0233519 0.0967375,0.020022 0.171831,0.0650609 0.228524,0.136782 0.0567361,0.0700557 0.0834179,0.163506 0.080088,0.280265 -0.00332989,0.116759 -0.0467038,0.253541 -0.130122,0.410345l0.00998966 0 -0.790677 1.36124c-0.211875,0.343619 -0.420377,0.627214 -0.625592,0.852408 -0.206837,0.225237 -0.40202,0.393695 -0.58717,0.503795 -0.183485,0.1101 -0.350321,0.165171 -0.4988,0.165171 -0.0783804,0 -0.140111,-0.0183571 -0.186815,-0.0567361 -0.0467038,-0.0383791 -0.0667258,-0.100067 -0.060066,-0.183485 0.00665977,-0.0834179 0.0483687,-0.193518 0.126792,-0.330299l1.45128 -2.53229zm6.65597 0.480443l0.150144 -0.260243c0.138446,-0.241886 0.213497,-0.463751 0.226859,-0.668923 0.0116973,-0.203507 -0.0250168,-0.380333 -0.11343,-0.532142 -0.0867478,-0.151809 -0.21354,-0.268568 -0.377003,-0.353651 -0.163463,-0.0834179 -0.351986,-0.125084 -0.567191,-0.126792 -0.422042,0.00170763 -0.79738,0.10677 -1.12601,0.315315 -0.328592,0.206837 -0.603862,0.502087 -0.825727,0.885793l-1.09096 1.87165c-0.161798,0.280265 -0.250211,0.547169 -0.268568,0.802375 -0.0183571,0.253584 0.0250168,0.480443 0.133452,0.68062 0.108435,0.198512 0.270233,0.356981 0.487103,0.472118 0.21687,0.115095 0.480443,0.173453 0.789012,0.176826 0.295293,-0.00170763 0.588878,-0.0550712 0.879133,-0.160176 0.290255,-0.103397 0.572186,-0.245216 0.847413,-0.425372 0.275271,-0.180155 0.537179,-0.383663 0.78739,-0.613895 0.250211,-0.228524 0.483773,-0.470411 0.698977,-0.722287 -0.0250595,-0.0483687 -0.0584011,-0.0951152 -0.101775,-0.141819 -0.0433739,-0.0483687 -0.0900777,-0.0917426 -0.140111,-0.130122 -0.0517413,-0.0383364 -0.10011,-0.0683908 -0.148479,-0.0884128l-0.0700557 0.080088c-0.188523,0.218534 -0.387035,0.422042 -0.595537,0.610565 -0.208545,0.18848 -0.418712,0.355316 -0.632252,0.497092 -0.215162,0.141819 -0.423707,0.251876 -0.630544,0.331964 -0.205172,0.080088 -0.400355,0.120132 -0.583883,0.121797 -0.161798,0 -0.30191,-0.0250595 -0.422042,-0.0750932 -0.120089,-0.0516986 -0.210167,-0.128457 -0.268568,-0.230189 -0.0583584,-0.101775 -0.0783804,-0.231897 -0.0583584,-0.387035 0.020022,-0.155139 0.0900777,-0.338624 0.208502,-0.548791l0.10011 -0.180198c0.135117,0.0567361 0.290255,0.0951152 0.465416,0.111765 0.173453,0.0183571 0.358646,0.0100324 0.553828,-0.0250168 0.196848,-0.0333416 0.393652,-0.101732 0.59383,-0.200177 0.200177,-0.100067 0.393695,-0.238514 0.582218,-0.417047 0.186815,-0.17849 0.360311,-0.40202 0.517114,-0.670588zm-1.74157 -0.480443c0.101775,-0.171788 0.211875,-0.310277 0.328634,-0.417004 0.116802,-0.10677 0.233562,-0.180155 0.346991,-0.225237 0.111765,-0.0433312 0.21354,-0.0566935 0.303617,-0.0400013 0.0884128,0.0166494 0.155139,0.0616883 0.201842,0.135117 0.0450389,0.0750505 0.0583584,0.175161 0.040044,0.303575 -0.0183571,0.128457 -0.0784231,0.283595 -0.180198,0.463751l-0.150101 0.260243c-0.126792,0.21021 -0.260243,0.373673 -0.400355,0.487103 -0.140154,0.11343 -0.280265,0.190188 -0.422042,0.230232 -0.140154,0.0400013 -0.273606,0.0550285 -0.400398,0.0433739 -0.126749,-0.0100324 -0.240179,-0.0333842 -0.338624,-0.0700984l0.670588 -1.17105zm6.82614 1.5414c-0.188523,0.218534 -0.373673,0.422042 -0.555493,0.610565 -0.181863,0.18848 -0.356981,0.355316 -0.523817,0.497092 -0.168501,0.141819 -0.325304,0.251876 -0.470411,0.331964 -0.145149,0.080088 -0.276936,0.120132 -0.39203,0.121797 -0.0783804,0 -0.140111,-0.0183571 -0.186815,-0.0567361 -0.0467038,-0.0383791 -0.0667258,-0.100067 -0.060066,-0.183485 0.00665977,-0.0834179 0.0483687,-0.193518 0.126792,-0.330299l1.50131 -2.63236c0.1101,-0.198512 0.171831,-0.380333 0.183528,-0.547169 0.0133195,-0.165128 -0.0133622,-0.308612 -0.0767582,-0.430367 -0.0633959,-0.121797 -0.155139,-0.215205 -0.271898,-0.28193 -0.116759,-0.0667258 -0.248546,-0.100067 -0.39536,-0.101775 -0.225194,-0.00166494 -0.455383,0.061731 -0.69394,0.186858 -0.238557,0.126792 -0.487103,0.325304 -0.747346,0.593872l0.390365 -0.68062 -1.04093 0 -2.8926 5.00448 1.05096 0 1.59139 -2.77247c0.318645,-0.397025 0.600532,-0.708967 0.847456,-0.939199 0.245216,-0.230189 0.453718,-0.390322 0.622219,-0.482065 0.168458,-0.0917853 0.296915,-0.126792 0.383663,-0.108435 0.0867478,0.020022 0.130122,0.0800454 0.131787,0.18182 0,0.101775 -0.0433739,0.230189 -0.133452,0.386993l-1.35121 2.35214c-0.1101,0.193475 -0.173496,0.380333 -0.193518,0.557158 -0.0183571,0.176826 0.00332989,0.333629 0.0683908,0.472075 0.0650609,0.138446 0.166836,0.248546 0.308612,0.328634 0.140154,0.080088 0.31698,0.121754 0.527147,0.123462 0.215205,-0.00170763 0.438734,-0.0550712 0.665593,-0.160176 0.228524,-0.103397 0.458756,-0.245216 0.69061,-0.425372 0.231897,-0.180155 0.462086,-0.383663 0.69061,-0.613895 0.228567,-0.228524 0.450431,-0.470411 0.665636,-0.722287 -0.0250595,-0.0467038 -0.0584011,-0.0951152 -0.101775,-0.141819 -0.0433739,-0.0483687 -0.0900777,-0.0917426 -0.140111,-0.130122 -0.0517413,-0.0383364 -0.10011,-0.0683908 -0.148479,-0.0884128l-0.0700557 0.080088z"/>
 </g>
</svg>
